<?xml version="1.0" encoding="UTF-8" standalone="no"?>
<!-- Generator: Adobe Illustrator 19.0.0, SVG Export Plug-In . SVG Version: 6.00 Build 0)  -->

<svg
   xmlns:dc="http://purl.org/dc/elements/1.1/"
   xmlns:cc="http://creativecommons.org/ns#"
   xmlns:rdf="http://www.w3.org/1999/02/22-rdf-syntax-ns#"
   xmlns:svg="http://www.w3.org/2000/svg"
   xmlns="http://www.w3.org/2000/svg"
   xmlns:sodipodi="http://sodipodi.sourceforge.net/DTD/sodipodi-0.dtd"
   xmlns:inkscape="http://www.inkscape.org/namespaces/inkscape"
   version="1.1"
   id="Layer_1"
   x="0px"
   y="0px"
   viewBox="0 0 496 481"
   xml:space="preserve"
   sodipodi:docname="ammo.svg"
   width="496"
   height="481"
   inkscape:version="0.92.3 (2405546, 2018-03-11)"><metadata
   id="metadata458"><rdf:RDF><cc:Work
       rdf:about=""><dc:format>image/svg+xml</dc:format><dc:type
         rdf:resource="http://purl.org/dc/dcmitype/StillImage" /><dc:title></dc:title></cc:Work></rdf:RDF></metadata><defs
   id="defs456" /><sodipodi:namedview
   pagecolor="#ffffff"
   bordercolor="#666666"
   borderopacity="1"
   objecttolerance="10"
   gridtolerance="10"
   guidetolerance="10"
   inkscape:pageopacity="0"
   inkscape:pageshadow="2"
   inkscape:window-width="1366"
   inkscape:window-height="705"
   id="namedview454"
   showgrid="false"
   inkscape:zoom="0.9516129"
   inkscape:cx="270.33375"
   inkscape:cy="207.98413"
   inkscape:window-x="-8"
   inkscape:window-y="-8"
   inkscape:window-maximized="1"
   inkscape:current-layer="Layer_1" />
<path
   style="fill:#a3b2b0"
   d="M 136,409 V 223.4 c 0,-36.8 -30.4,-67.2 -68,-67.2 -37.6,0 -68,30.4 -68,67.2 V 409 Z"
   id="path331"
   inkscape:connector-curvature="0" />
<path
   style="fill:#90a09d"
   d="m 72,409 h 64 V 223.4 c 0,-36.8 -30.4,-67.2 -68,-67.2"
   id="path333"
   inkscape:connector-curvature="0" />
<path
   style="fill:#a3b2b0"
   d="m 144,473 c 0,4 -7.2,8 -11.2,8 H 7.2 C 3.2,481 0,477 0,473 V 447.4 C 0,442.6 3.2,441 7.2,441 h 125.6 c 4,0 11.2,1.6 11.2,5.6 z"
   id="path335"
   inkscape:connector-curvature="0" />
<path
   style="fill:#90a09d"
   d="m 0,446.6 c 0,-4 3.2,-5.6 7.2,-5.6 h 125.6 c 4,0 11.2,1.6 11.2,5.6 V 473 c 0,4 -4.8,8 -9.6,8"
   id="path337"
   inkscape:connector-curvature="0" />
<rect
   x="16"
   y="409"
   style="fill:#4c5655"
   width="104"
   height="32"
   id="rect339" />
<polyline
   style="fill:#414c4b"
   points="72,416 120,416 120,448 "
   id="polyline341"
   transform="translate(0,-7)" />
<path
   style="fill:#798483"
   d="M 0,224.2 V 409 H 136 V 224.2 c 0,-4.8 -0.8,-7.2 -1.6,-15.2 H 1.6 C 0,216.2 0,219.4 0,224.2 Z"
   id="path343"
   inkscape:connector-curvature="0" />
<g
   id="g349"
   transform="translate(0,-7)">
	<path
   style="fill:#616b6a"
   d="M 134.4,216 H 72 v 200 h 64 V 231.2 c 0,-4.8 0,-8 -1.6,-15.2 z"
   id="path345"
   inkscape:connector-curvature="0" />
	<circle
   style="fill:#616b6a"
   cx="70.400002"
   cy="260"
   r="16"
   id="circle347" />
</g>
<path
   style="fill:#798483"
   d="m 70.4,237.8 c 8.8,0 16,7.2 16,16 0,8.8 -7.2,15.2 -16,15.2"
   id="path351"
   inkscape:connector-curvature="0" />
<path
   style="fill:#616b6a"
   d="m 85.6,309 c 0,8.8 -7.2,16 -16,16 -8.8,0 -16,-7.2 -16,-16 0,-8.8 7.2,-15.2 16,-15.2 8.8,0 16,6.4 16,15.2 z"
   id="path353"
   inkscape:connector-curvature="0" />
<path
   style="fill:#798483"
   d="m 70.4,293 c 8.8,0 16,7.2 16,15.2 0,8.8 -7.2,16 -16,16"
   id="path355"
   inkscape:connector-curvature="0" />
<circle
   style="fill:#616b6a"
   cx="70.400002"
   cy="364.20001"
   r="16"
   id="circle357" />
<path
   style="fill:#798483"
   d="m 70.4,349 c 8.8,0 16,7.2 16,15.2 0,8.8 -7.2,16 -16,16"
   id="path359"
   inkscape:connector-curvature="0" />
<path
   style="fill:#f4cc25"
   d="M 312,409 V 223.4 C 312,186.6 285.6,1 248,1 210.4,1 184,185.8 184,223.4 V 409 Z"
   id="path361"
   inkscape:connector-curvature="0" />
<path
   style="fill:#e8b21a"
   d="m 248,409 h 64 V 223.4 C 312,186.6 285.6,1 248,1"
   id="path363"
   inkscape:connector-curvature="0" />
<path
   style="fill:#f4cc25"
   d="m 320,473 c 0,4 -4.8,8 -8.8,8 H 184.8 c -4,0 -8.8,-4 -8.8,-8 v -25.6 c 0,-4 4.8,-5.6 8.8,-5.6 h 125.6 c 4,0 8.8,1.6 8.8,5.6 V 473 Z"
   id="path365"
   inkscape:connector-curvature="0" />
<path
   style="fill:#e8b21a"
   d="m 176,446.6 c 0,-4 4.8,-5.6 8.8,-5.6 h 125.6 c 4,0 8.8,1.6 8.8,5.6 V 473 c 0,4 -4,8 -8,8"
   id="path367"
   inkscape:connector-curvature="0" />
<rect
   x="200"
   y="409"
   style="fill:#4c5655"
   width="96"
   height="32"
   id="rect369" />
<polyline
   style="fill:#414c4b"
   points="248,416 296,416 296,448 "
   id="polyline371"
   transform="translate(0,-7)" />
<path
   style="fill:#eaaa0a"
   d="M 184,224.2 V 409 H 312 V 224.2 c 0,-4.8 0,-7.2 -0.8,-15.2 H 184.8 c -0.8,8 -0.8,10.4 -0.8,15.2 z"
   id="path373"
   inkscape:connector-curvature="0" />
<g
   id="g379"
   transform="translate(0,-7)">
	<path
   style="fill:#d87f09"
   d="M 311.2,216 H 248 v 200 h 64 V 231.2 c 0,-4.8 0,-7.2 -0.8,-15.2 z"
   id="path375"
   inkscape:connector-curvature="0" />
	<circle
   style="fill:#d87f09"
   cx="248"
   cy="260"
   r="16"
   id="circle377" />
</g>
<path
   style="fill:#eaaa0a"
   d="m 248,237.8 c 8.8,0 16,7.2 16,16 0,8.8 -7.2,15.2 -16,15.2"
   id="path381"
   inkscape:connector-curvature="0" />
<path
   style="fill:#d87f09"
   d="m 264,309 c 0,8.8 -7.2,16 -16,16 -8.8,0 -16,-7.2 -16,-16 0,-8.8 7.2,-15.2 16,-15.2 8.8,0 16,6.4 16,15.2 z"
   id="path383"
   inkscape:connector-curvature="0" />
<path
   style="fill:#eaaa0a"
   d="m 248,293 c 8.8,0 16,7.2 16,15.2 0,8.8 -7.2,16 -16,16"
   id="path385"
   inkscape:connector-curvature="0" />
<circle
   style="fill:#d87f09"
   cx="248"
   cy="364.20001"
   r="16"
   id="circle387" />
<g
   id="g393"
   transform="translate(0,-7)">
	<path
   style="fill:#eaaa0a"
   d="m 248,356 c 8.8,0 16,7.2 16,15.2 0,8.8 -7.2,16 -16,16"
   id="path389"
   inkscape:connector-curvature="0" />
	<path
   style="fill:#eaaa0a"
   d="M 368,264 V 448 H 480 V 264 c 0,-4.8 0,-16 0,-16 H 369.6 c -0.8,8 -1.6,12 -1.6,16 z"
   id="path391"
   inkscape:connector-curvature="0" />
</g>
<path
   style="fill:#d87f09"
   d="m 480,241 h -56 v 200 h 56 V 257 c 0,-4 0,-16 0,-16 z"
   id="path395"
   inkscape:connector-curvature="0" />
<path
   style="fill:#ce351b"
   d="m 496,473 c 0,4 -3.2,8 -7.2,8 H 363.2 c -4,0 -11.2,-4 -11.2,-8 v -25.6 c 0,-4 7.2,-5.6 11.2,-5.6 h 125.6 c 4,0 7.2,1.6 7.2,5.6 z"
   id="path397"
   inkscape:connector-curvature="0" />
<path
   style="fill:#ad1905"
   d="m 352,446.6 c 0,-4 7.2,-5.6 11.2,-5.6 h 125.6 c 4,0 7.2,1.6 7.2,5.6 V 473 c 0,4 -3.2,8 -7.2,8"
   id="path399"
   inkscape:connector-curvature="0" />
<path
   style="fill:#ce351b"
   d="M 368,180.2 V 361 H 480 V 180.2 c 0,-4.8 -1.6,-9.6 -3.2,-11.2 H 369.6 c -0.8,0 -1.6,7.2 -1.6,11.2 z"
   id="path401"
   inkscape:connector-curvature="0" />
<g
   id="g407"
   transform="translate(0,-7)">
	<path
   style="fill:#ad1905"
   d="M 478.4,176 H 424 v 192 h 56 V 187.2 c 0,-4 0,-8 -1.6,-11.2 z"
   id="path403"
   inkscape:connector-curvature="0" />
	<circle
   style="fill:#ad1905"
   cx="425.60001"
   cy="216.8"
   r="16"
   id="circle405" />
</g>
<path
   style="fill:#ce351b"
   d="m 425.6,193.8 c 8.8,0 16,7.2 16,16 0,8.8 -7.2,15.2 -16,15.2"
   id="path409"
   inkscape:connector-curvature="0" />
<circle
   style="fill:#ad1905"
   cx="425.60001"
   cy="265"
   r="16"
   id="circle411" />
<path
   style="fill:#ce351b"
   d="m 425.6,249 c 8.8,0 16,7.2 16,15.2 0,8.8 -7.2,16 -16,16"
   id="path413"
   inkscape:connector-curvature="0" />
<circle
   style="fill:#ad1905"
   cx="425.60001"
   cy="320.20001"
   r="16"
   id="circle415" />
<g
   id="g421"
   transform="translate(0,-7)">
	<path
   style="fill:#ce351b"
   d="m 425.6,312 c 8.8,0 16,7.2 16,16 0,8.8 -7.2,16 -16,16"
   id="path417"
   inkscape:connector-curvature="0" />
	<path
   style="fill:#ce351b"
   d="m 478.4,176 c 0,5.6 -4.8,8 -8.8,8 h -94.4 c -3.2,0 -6.4,-4.8 -6.4,-8 v 0 c 0,-3.2 3.2,-8 6.4,-8 H 472 c 3.2,0 6.4,3.2 6.4,8 z"
   id="path419"
   inkscape:connector-curvature="0" />
</g>
<g
   id="g423"
   transform="translate(0,-15)">
</g>
<g
   id="g425"
   transform="translate(0,-15)">
</g>
<g
   id="g427"
   transform="translate(0,-15)">
</g>
<g
   id="g429"
   transform="translate(0,-15)">
</g>
<g
   id="g431"
   transform="translate(0,-15)">
</g>
<g
   id="g433"
   transform="translate(0,-15)">
</g>
<g
   id="g435"
   transform="translate(0,-15)">
</g>
<g
   id="g437"
   transform="translate(0,-15)">
</g>
<g
   id="g439"
   transform="translate(0,-15)">
</g>
<g
   id="g441"
   transform="translate(0,-15)">
</g>
<g
   id="g443"
   transform="translate(0,-15)">
</g>
<g
   id="g445"
   transform="translate(0,-15)">
</g>
<g
   id="g447"
   transform="translate(0,-15)">
</g>
<g
   id="g449"
   transform="translate(0,-15)">
</g>
<g
   id="g451"
   transform="translate(0,-15)">
</g>
</svg>