<?xml version="1.0" encoding="UTF-8" standalone="no"?>
<!-- Generator: Adobe Illustrator 19.1.1, SVG Export Plug-In . SVG Version: 6.00 Build 0)  -->

<svg
   xmlns:dc="http://purl.org/dc/elements/1.1/"
   xmlns:cc="http://creativecommons.org/ns#"
   xmlns:rdf="http://www.w3.org/1999/02/22-rdf-syntax-ns#"
   xmlns:svg="http://www.w3.org/2000/svg"
   xmlns="http://www.w3.org/2000/svg"
   xmlns:sodipodi="http://sodipodi.sourceforge.net/DTD/sodipodi-0.dtd"
   xmlns:inkscape="http://www.inkscape.org/namespaces/inkscape"
   version="1.1"
   id="Layer_1"
   x="0px"
   y="0px"
   viewBox="0 0 13 21"
   xml:space="preserve"
   sodipodi:docname="arrow.svg"
   width="13"
   height="21"
   inkscape:version="0.92.3 (2405546, 2018-03-11)"><metadata
   id="metadata27"><rdf:RDF><cc:Work
       rdf:about=""><dc:format>image/svg+xml</dc:format><dc:type
         rdf:resource="http://purl.org/dc/dcmitype/StillImage" /><dc:title></dc:title></cc:Work></rdf:RDF></metadata><defs
   id="defs25" /><sodipodi:namedview
   pagecolor="#ffffff"
   bordercolor="#666666"
   borderopacity="1"
   objecttolerance="10"
   gridtolerance="10"
   guidetolerance="10"
   inkscape:pageopacity="0"
   inkscape:pageshadow="2"
   inkscape:window-width="1366"
   inkscape:window-height="705"
   id="namedview23"
   showgrid="false"
   inkscape:zoom="22.627417"
   inkscape:cx="11.995594"
   inkscape:cy="8.9147698"
   inkscape:window-x="-8"
   inkscape:window-y="-8"
   inkscape:window-maximized="1"
   inkscape:current-layer="Layer_1" />


<path
   style="fill:#ff3d00;stroke-width:1.02317333"
   d="M 0.5537935,16.86584 12.395739,16.648288 7.1707624,0.946004 C 6.8826823,-0.050152 5.3942549,-0.024929 5.143498,0.979714 Z"
   id="path6"
   inkscape:connector-curvature="0" />
<path
   style="fill:#dd2c00;stroke-width:1.02317333"
   d="M 6.4747668,16.757063 12.39574,16.648287 7.1707623,0.946004 C 7.026708,0.447219 6.5820367,0.205026 6.1416501,0.212409 Z"
   id="path8"
   inkscape:connector-curvature="0" />


<path
   style="fill:#dd2c00;stroke-width:1.02317333"
   d="M 9.3783157,13.874771 C 7.7119419,12.343096 5.0608268,12.3918 3.4573421,13.983547 2.6552368,14.77978 2.2673012,15.810987 2.2886386,16.833968 l 8.3737364,-0.153837 c -0.02134,-1.02298 -0.450496,-2.039176 -1.2840593,-2.80536 z"
   id="path14"
   inkscape:connector-curvature="0" />
<path
   style="fill:#b0bec5;stroke-width:1.02317333"
   d="m 3.5712181,19.639356 c 1.6663729,1.531673 4.3174887,1.482968 5.9209734,-0.108777 0.8021055,-0.796233 1.1900415,-1.827441 1.1687035,-2.85042 l -8.3737366,0.153836 c 0.021338,1.022981 0.4504962,2.039176 1.2840597,2.805361 z"
   id="path16"
   inkscape:connector-curvature="0" />
<ellipse
   style="fill:#ffffff;stroke-width:1.02370942"
   cx="16.471233"
   cy="7.9638734"
   id="circle18"
   transform="matrix(0.73623666,0.67672416,-0.70969981,0.70450421,0,0)"
   rx="2.049222"
   ry="2.0456176" />

</svg>